<mxfile host="drawio-plugin" modified="2023-07-25T17:12:22.914Z" agent="5.0 (Windows NT 6.2; Win64; x64) AppleWebKit/537.36 (KHTML, like Gecko) Chrome/104.0.5112.102 Safari/537.36" etag="I3DEdxZuZpvK23m_gKxH" version="20.5.3" type="embed"><diagram name="Страница 1" id="9AdSGZ-wU5dIfNWMVngr"><mxGraphModel dx="640" dy="543" grid="1" gridSize="10" guides="1" tooltips="1" connect="1" arrows="1" fold="1" page="1" pageScale="1" pageWidth="827" pageHeight="1169" math="0" shadow="0"><root><mxCell id="0"/><mxCell id="1" parent="0"/><mxCell id="fwMDCeDDaVyuJN_M8xQI-4" value="" style="edgeStyle=orthogonalEdgeStyle;rounded=0;orthogonalLoop=1;jettySize=auto;html=1;labelBackgroundColor=none;fontColor=default;" parent="1" source="fwMDCeDDaVyuJN_M8xQI-2" target="fwMDCeDDaVyuJN_M8xQI-3" edge="1"><mxGeometry relative="1" as="geometry"/></mxCell><mxCell id="fwMDCeDDaVyuJN_M8xQI-2" value="start" style="ellipse;whiteSpace=wrap;html=1;labelBackgroundColor=none;" parent="1" vertex="1"><mxGeometry x="330" y="30" width="120" height="80" as="geometry"/></mxCell><mxCell id="fwMDCeDDaVyuJN_M8xQI-6" value="" style="edgeStyle=orthogonalEdgeStyle;rounded=0;orthogonalLoop=1;jettySize=auto;html=1;labelBackgroundColor=none;fontColor=default;" parent="1" source="fwMDCeDDaVyuJN_M8xQI-43" edge="1"><mxGeometry relative="1" as="geometry"><mxPoint x="390" y="210" as="targetPoint"/></mxGeometry></mxCell><mxCell id="fwMDCeDDaVyuJN_M8xQI-3" value="numStatN" style="whiteSpace=wrap;html=1;labelBackgroundColor=none;" parent="1" vertex="1"><mxGeometry x="330" y="140" width="120" height="40" as="geometry"/></mxCell><mxCell id="fwMDCeDDaVyuJN_M8xQI-66" style="edgeStyle=orthogonalEdgeStyle;rounded=0;orthogonalLoop=1;jettySize=auto;html=1;entryX=0.617;entryY=-0.021;entryDx=0;entryDy=0;entryPerimeter=0;" parent="1" source="fwMDCeDDaVyuJN_M8xQI-11" target="fwMDCeDDaVyuJN_M8xQI-22" edge="1"><mxGeometry relative="1" as="geometry"/></mxCell><mxCell id="fwMDCeDDaVyuJN_M8xQI-11" value="print numStatN%numKrat" style="shape=document;whiteSpace=wrap;html=1;boundedLbl=1;labelBackgroundColor=none;" parent="1" vertex="1"><mxGeometry x="330" y="600" width="160" height="80" as="geometry"/></mxCell><mxCell id="fwMDCeDDaVyuJN_M8xQI-22" value="end" style="ellipse;whiteSpace=wrap;html=1;aspect=fixed;labelBackgroundColor=none;" parent="1" vertex="1"><mxGeometry x="360" y="897" width="80" height="80" as="geometry"/></mxCell><mxCell id="fwMDCeDDaVyuJN_M8xQI-36" style="edgeStyle=orthogonalEdgeStyle;rounded=0;orthogonalLoop=1;jettySize=auto;html=1;exitX=0;exitY=0.5;exitDx=0;exitDy=0;labelBackgroundColor=none;fontColor=default;entryX=0.636;entryY=0.008;entryDx=0;entryDy=0;entryPerimeter=0;" parent="1" source="fwMDCeDDaVyuJN_M8xQI-34" target="fwMDCeDDaVyuJN_M8xQI-37" edge="1"><mxGeometry relative="1" as="geometry"><mxPoint x="240" y="527" as="targetPoint"/><Array as="points"><mxPoint x="241" y="457"/></Array></mxGeometry></mxCell><mxCell id="fwMDCeDDaVyuJN_M8xQI-72" style="edgeStyle=orthogonalEdgeStyle;rounded=0;orthogonalLoop=1;jettySize=auto;html=1;entryX=0.51;entryY=-0.075;entryDx=0;entryDy=0;entryPerimeter=0;" parent="1" source="fwMDCeDDaVyuJN_M8xQI-34" target="fwMDCeDDaVyuJN_M8xQI-62" edge="1"><mxGeometry relative="1" as="geometry"><mxPoint x="560" y="457" as="targetPoint"/><Array as="points"><mxPoint x="557" y="460"/></Array></mxGeometry></mxCell><mxCell id="fwMDCeDDaVyuJN_M8xQI-34" value="&lt;div style=&quot;font-family: &amp;quot;JetBrains Mono&amp;quot;, monospace;&quot;&gt;&lt;font style=&quot;background-color: rgb(30, 26, 26);&quot; color=&quot;#ffffff&quot;&gt;numStatN &amp;gt; numKrat&lt;/font&gt;&lt;/div&gt;" style="rhombus;whiteSpace=wrap;html=1;labelBackgroundColor=none;" parent="1" vertex="1"><mxGeometry x="285" y="417" width="210" height="80" as="geometry"/></mxCell><mxCell id="fwMDCeDDaVyuJN_M8xQI-38" style="edgeStyle=orthogonalEdgeStyle;rounded=0;orthogonalLoop=1;jettySize=auto;html=1;entryX=0;entryY=0.5;entryDx=0;entryDy=0;labelBackgroundColor=none;fontColor=default;" parent="1" target="fwMDCeDDaVyuJN_M8xQI-22" edge="1"><mxGeometry relative="1" as="geometry"><mxPoint x="200" y="619" as="sourcePoint"/><Array as="points"><mxPoint x="200" y="927"/><mxPoint x="360" y="927"/></Array></mxGeometry></mxCell><mxCell id="fwMDCeDDaVyuJN_M8xQI-37" value="numStatN &amp;lt; numKrat" style="shape=document;whiteSpace=wrap;html=1;boundedLbl=1;labelBackgroundColor=none;" parent="1" vertex="1"><mxGeometry x="165" y="537" width="120" height="80" as="geometry"/></mxCell><mxCell id="fwMDCeDDaVyuJN_M8xQI-46" value="Felse" style="text;html=1;strokeColor=none;fillColor=none;align=center;verticalAlign=middle;whiteSpace=wrap;rounded=0;" parent="1" vertex="1"><mxGeometry x="260" y="407" width="60" height="30" as="geometry"/></mxCell><mxCell id="fwMDCeDDaVyuJN_M8xQI-77" style="edgeStyle=orthogonalEdgeStyle;rounded=0;orthogonalLoop=1;jettySize=auto;html=1;entryX=0.5;entryY=0;entryDx=0;entryDy=0;" parent="1" source="fwMDCeDDaVyuJN_M8xQI-60" target="fwMDCeDDaVyuJN_M8xQI-61" edge="1"><mxGeometry relative="1" as="geometry"/></mxCell><mxCell id="fwMDCeDDaVyuJN_M8xQI-60" value="numKrat" style="whiteSpace=wrap;html=1;labelBackgroundColor=none;" parent="1" vertex="1"><mxGeometry x="330" y="270" width="120" height="40" as="geometry"/></mxCell><mxCell id="fwMDCeDDaVyuJN_M8xQI-78" style="edgeStyle=orthogonalEdgeStyle;rounded=0;orthogonalLoop=1;jettySize=auto;html=1;entryX=0.5;entryY=0;entryDx=0;entryDy=0;" parent="1" source="fwMDCeDDaVyuJN_M8xQI-61" target="fwMDCeDDaVyuJN_M8xQI-34" edge="1"><mxGeometry relative="1" as="geometry"/></mxCell><mxCell id="fwMDCeDDaVyuJN_M8xQI-61" value="numKrft==num" style="shape=parallelogram;perimeter=parallelogramPerimeter;whiteSpace=wrap;html=1;fixedSize=1;labelBackgroundColor=none;" parent="1" vertex="1"><mxGeometry x="330" y="340" width="120" height="40" as="geometry"/></mxCell><mxCell id="fwMDCeDDaVyuJN_M8xQI-76" style="edgeStyle=orthogonalEdgeStyle;rounded=0;orthogonalLoop=1;jettySize=auto;html=1;" parent="1" source="fwMDCeDDaVyuJN_M8xQI-62" edge="1"><mxGeometry relative="1" as="geometry"><mxPoint x="410" y="590" as="targetPoint"/></mxGeometry></mxCell><mxCell id="fwMDCeDDaVyuJN_M8xQI-62" value="numStatN%numKrat==0" style="rhombus;whiteSpace=wrap;html=1;" parent="1" vertex="1"><mxGeometry x="470" y="480" width="170" height="80" as="geometry"/></mxCell><mxCell id="fwMDCeDDaVyuJN_M8xQI-65" style="edgeStyle=orthogonalEdgeStyle;rounded=0;orthogonalLoop=1;jettySize=auto;html=1;entryX=1;entryY=0.5;entryDx=0;entryDy=0;" parent="1" source="fwMDCeDDaVyuJN_M8xQI-64" target="fwMDCeDDaVyuJN_M8xQI-22" edge="1"><mxGeometry relative="1" as="geometry"/></mxCell><mxCell id="fwMDCeDDaVyuJN_M8xQI-67" value="true" style="text;html=1;strokeColor=none;fillColor=none;align=center;verticalAlign=middle;whiteSpace=wrap;rounded=0;" parent="1" vertex="1"><mxGeometry x="620" y="490" width="60" height="30" as="geometry"/></mxCell><mxCell id="fwMDCeDDaVyuJN_M8xQI-68" value="Felse" style="text;html=1;strokeColor=none;fillColor=none;align=center;verticalAlign=middle;whiteSpace=wrap;rounded=0;" parent="1" vertex="1"><mxGeometry x="420" y="490" width="60" height="30" as="geometry"/></mxCell><mxCell id="fwMDCeDDaVyuJN_M8xQI-73" value="true" style="text;html=1;strokeColor=none;fillColor=none;align=center;verticalAlign=middle;whiteSpace=wrap;rounded=0;" parent="1" vertex="1"><mxGeometry x="470" y="407" width="60" height="30" as="geometry"/></mxCell><mxCell id="fwMDCeDDaVyuJN_M8xQI-75" value="" style="edgeStyle=orthogonalEdgeStyle;rounded=0;orthogonalLoop=1;jettySize=auto;html=1;" parent="1" source="fwMDCeDDaVyuJN_M8xQI-62" target="fwMDCeDDaVyuJN_M8xQI-64" edge="1"><mxGeometry relative="1" as="geometry"><mxPoint x="710" y="570" as="targetPoint"/><mxPoint x="640" y="520" as="sourcePoint"/><Array as="points"><mxPoint x="710" y="520"/></Array></mxGeometry></mxCell><mxCell id="fwMDCeDDaVyuJN_M8xQI-64" value="print kratno" style="shape=document;whiteSpace=wrap;html=1;boundedLbl=1;" parent="1" vertex="1"><mxGeometry x="630" y="570" width="120" height="80" as="geometry"/></mxCell><mxCell id="fwMDCeDDaVyuJN_M8xQI-79" value="" style="edgeStyle=orthogonalEdgeStyle;rounded=0;orthogonalLoop=1;jettySize=auto;html=1;labelBackgroundColor=none;fontColor=default;" parent="1" source="fwMDCeDDaVyuJN_M8xQI-3" target="fwMDCeDDaVyuJN_M8xQI-43" edge="1"><mxGeometry relative="1" as="geometry"><mxPoint x="390" y="180" as="sourcePoint"/><mxPoint x="390" y="210" as="targetPoint"/></mxGeometry></mxCell><mxCell id="fwMDCeDDaVyuJN_M8xQI-80" style="edgeStyle=orthogonalEdgeStyle;rounded=0;orthogonalLoop=1;jettySize=auto;html=1;entryX=0.5;entryY=0;entryDx=0;entryDy=0;" parent="1" source="fwMDCeDDaVyuJN_M8xQI-43" target="fwMDCeDDaVyuJN_M8xQI-60" edge="1"><mxGeometry relative="1" as="geometry"/></mxCell><mxCell id="fwMDCeDDaVyuJN_M8xQI-43" value="numStatN==num" style="shape=parallelogram;perimeter=parallelogramPerimeter;whiteSpace=wrap;html=1;fixedSize=1;labelBackgroundColor=none;" parent="1" vertex="1"><mxGeometry x="330" y="210" width="120" height="40" as="geometry"/></mxCell></root></mxGraphModel></diagram></mxfile>